# xmcd
#
# Track frame offsets:
#	150
#	11577
#	24500
#	34838
#	45990
#	57957
#	73551
#	84689
#	102616
#	114662
#	128043
#	138657
#	149433
#	159544
#
# Disc length: 2286 seconds
# Revision: 0
# Processed by: cddbd v1.5.2PL0 Copyright (c) Steve Scherf et al.
# Submitted via: dBpowerAMP V12.0
#
DISCID=c408ec0e
DTITLE=Carolina Blue - Sounds Of Kentucky Grass
DYEAR=2017
DGENRE=Bluegrass
TTITLE0=Enoch's Still
TTITLE1=Faded Rose
TTITLE2=Dreaming Of You
TTITLE3=The Love I've Lost Today
TTITLE4=Hell Come the Night
TTITLE5=No Room In My World
TTITLE6=Are You Living Right
TTITLE7=Her True Love Now Is Sleeping
TTITLE8=Bonnie Goodbye
TTITLE9=Home
TTITLE10=Kiss Me Once and Go Love
TTITLE11=Just A Poor Country Boy
TTITLE12=Jesus Broke The Bonds
TTITLE13=Take Me Back To Kentucky
EXTD=
EXTT0=
EXTT1=
EXTT2=
EXTT3=
EXTT4=
EXTT5=
EXTT6=
EXTT7=
EXTT8=
EXTT9=
EXTT10=
EXTT11=
EXTT12=
EXTT13=
PLAYORDER=
